<mxfile host="app.diagrams.net" modified="2023-09-19T13:49:09.155Z" agent="Mozilla/5.0 (Windows NT 10.0; Win64; x64) AppleWebKit/537.36 (KHTML, like Gecko) Chrome/117.0.0.0 Safari/537.36" version="21.7.5" etag="Cxmla98Uxi3kCdJpEkdy" type="github">
  <diagram name="PÃ¡gina-1" id="tOlWVNywVyx0cQuSS0Ct">
    <mxGraphModel>
      <root>
        <mxCell id="0" />
        <mxCell id="1" parent="0" />
      </root>
    </mxGraphModel>
  </diagram>
</mxfile>
